{"title":"Zee Cine Awards Hindi 5th Feb 2012 720p x264 HD MTR","uid":7016586,"size":2312118466,"categoryP":"video","categoryS":"hd___tv_shows","magnet":"?xt=urn:btih:278d45017d3b8f247e8690a31253c537138f7e7b&amp;dn=Zee+Cine+Awards+Hindi+5th+Feb+2012+720p+x264+HD+MTR&amp;tr=udp%3A%2F%2Ftracker.openbittorrent.com%3A80&amp;tr=udp%3A%2F%2Fopen.demonii.com%3A1337&amp;tr=udp%3A%2F%2Ftracker.coppersurfer.tk%3A6969&amp;tr=udp%3A%2F%2Fexodus.desync.com%3A6969","seeders":0,"leechers":1,"uploader":"HDvideos","files":-1,"time":1328684652,"description":"mastitorrents.com\n &lt;a href=&quot;\nhttp://mastitorrents.com/forums/index.php&quot; rel=&quot;nofollow&quot; target=&quot;_NEW&quot;&gt;\nhttp://mastitorrents.com/forums/index.php&lt;/a&gt;\n &lt;a href=&quot;\nhttp://thepiratebay.se/user/HDvideos/0/7&quot; rel=&quot;nofollow&quot; target=&quot;_NEW&quot;&gt;\nhttp://thepiratebay.se/user/HDvideos/0/7&lt;/a&gt;\n\nZee Cine Awards Hindi 5th Feb 2012 720p x264 HD MTR@Mastitorrents\n\nName\t\t                    : Zee.Cine.Awards.2012.5th.Feb.720p.x264.mp4\nFormat                           : MPEG-4\nCodec ID                         : M4V \nFile size                        : 2.15 GiB\nDuration                         : 2h 46mn\nOverall bit rate mode            : Variable\nOverall bit rate                 : 1 853 Kbps\n\nVideo\nID                               : 1\nFormat                           : AVC\nFormat/Info                      : Advanced Video Codec\nFormat profile                   : &lt;a class=&quot;__cf_email__&quot; href=&quot;/cdn-cgi/l/email-protection&quot; data-cfemail=&quot;763e1f111e363a435846&quot;&gt;[email&amp;#160;protected]&lt;/a&gt;&lt;script cf-hash='f9e31' type=&quot;text/javascript&quot;&gt;\n/* &lt;![CDATA[ */!function(){try{var t=&quot;currentScript&quot;in document?document.currentScript:function(){for(var t=document.getElementsByTagName(&quot;script&quot;),e=t.length;e--;)if(t[e].getAttribute(&quot;cf-hash&quot;))return t[e]}();if(t&amp;&amp;t.previousSibling){var e,r,n,i,c=t.previousSibling,a=c.getAttribute(&quot;data-cfemail&quot;);if(a){for(e=&quot;&quot;,r=parseInt(a.substr(0,2),16),n=2;a.length-n;n+=2)i=parseInt(a.substr(n,2),16)^r,e+=String.fromCharCode(i);e=document.createTextNode(e),c.parentNode.replaceChild(e,c)}}}catch(u){}}();/* ]]&gt; */&lt;/script&gt;\nFormat settings, CABAC           : Yes\nFormat settings, ReFrames        : 16 frames\nCodec ID                         : avc1\nCodec ID/Info                    : Advanced Video Coding\nDuration                         : 2h 46mn\nBit rate                         : 1 800 Kbps\nMaximum bit rate                 : 8 422 Kbps\nWidth                            : 1 280 pixels\nHeight                           : 720 pixels\nDisplay aspect ratio             : 16:9\nFrame rate mode                  : Constant\nFrame rate                       : 50.000 fps\nColor space                      : YUV\nChroma subsampling               : 4:2:0\nBit depth                        : 8 bits\nScan type                        : Progressive\nBits/(Pixel*Frame)               : 0.039\nStream size                      : 2.09 GiB (97%)\n\nAudio\nID                               : 2\nFormat                           : AAC\nFormat/Info                      : Advanced Audio Codec\nFormat profile                   : HE-AAC / LC\nCodec ID                         : 40\nDuration                         : 2h 46mn\nBit rate mode                    : Variable\nBit rate                         : 48.0 Kbps\nMaximum bit rate                 : 54.7 Kbps\nChannel(s)                       : 2 channels\nChannel positions                : Front: L R\nSampling rate                    : 48.0 KHz / 24.0 KHz\nCompression mode                 : Lossy\nStream size                      : 57.1 MiB (3%)","torrent":{"xt":"urn:btih:278d45017d3b8f247e8690a31253c537138f7e7b","amp;dn":"Zee+Cine+Awards+Hindi+5th+Feb+2012+720p+x264+HD+MTR","amp;tr":["udp%3A%2F%2Ftracker.openbittorrent.com%3A80","udp%3A%2F%2Fopen.demonii.com%3A1337","udp%3A%2F%2Ftracker.coppersurfer.tk%3A6969","udp%3A%2F%2Fexodus.desync.com%3A6969"],"infoHash":"278d45017d3b8f247e8690a31253c537138f7e7b","infoHashBuffer":{"type":"Buffer","data":[39,141,69,1,125,59,143,36,126,134,144,163,18,83,197,55,19,143,126,123]},"announce":[],"urlList":[]}}